<svg xmlns="http://www.w3.org/2000/svg" xmlns:xlink="http://www.w3.org/1999/xlink">

<symbol id="flickr" fill-rule="evenodd" clip-rule="evenodd" stroke-linejoin="round" stroke-miterlimit="1.414"><path transform="scale(1.2)" d="M0 8c0 2.05 1.662 3.71 3.71 3.71 2.05 0 3.713-1.66 3.713-3.71S5.76 4.29 3.71 4.29C1.663 4.29 0 5.95 0 8zm8.577 0c0 2.05 1.662 3.71 3.712 3.71C14.33 11.71 16 10.05 16 8s-1.662-3.71-3.71-3.71c-2.05 0-3.713 1.66-3.713 3.71z"/></symbol>

<symbol id="github" fill-rule="evenodd" clip-rule="evenodd" stroke-linejoin="round" stroke-miterlimit="1.414"><path transform="scale(1.2)" d="M8 0C3.58 0 0 3.582 0 8c0 3.535 2.292 6.533 5.47 7.59.4.075.547-.172.547-.385 0-.19-.007-.693-.01-1.36-2.226.483-2.695-1.073-2.695-1.073-.364-.924-.89-1.17-.89-1.17-.725-.496.056-.486.056-.486.803.056 1.225.824 1.225.824.714 1.223 1.873.87 2.33.665.072-.517.278-.87.507-1.07-1.777-.2-3.644-.888-3.644-3.953 0-.873.31-1.587.823-2.147-.09-.202-.36-1.015.07-2.117 0 0 .67-.215 2.2.82.64-.178 1.32-.266 2-.27.68.004 1.36.092 2 .27 1.52-1.035 2.19-.82 2.19-.82.43 1.102.16 1.915.08 2.117.51.56.82 1.274.82 2.147 0 3.073-1.87 3.75-3.65 3.947.28.24.54.73.54 1.48 0 1.07-.01 1.93-.01 2.19 0 .21.14.46.55.38C13.71 14.53 16 11.53 16 8c0-4.418-3.582-8-8-8"/></symbol>

<symbol id="linkedin" fill-rule="evenodd" clip-rule="evenodd" stroke-linejoin="round" stroke-miterlimit="1.414"><path transform="scale(1.2)" d="M13.632 13.635h-2.37V9.922c0-.886-.018-2.025-1.234-2.025-1.235 0-1.424.964-1.424 1.96v3.778h-2.37V6H8.51v1.04h.03c.318-.6 1.092-1.233 2.247-1.233 2.4 0 2.845 1.58 2.845 3.637v4.188zM3.558 4.955c-.762 0-1.376-.617-1.376-1.377 0-.758.614-1.375 1.376-1.375.76 0 1.376.617 1.376 1.375 0 .76-.617 1.377-1.376 1.377zm1.188 8.68H2.37V6h2.376v7.635zM14.816 0H1.18C.528 0 0 .516 0 1.153v13.694C0 15.484.528 16 1.18 16h13.635c.652 0 1.185-.516 1.185-1.153V1.153C16 .516 15.467 0 14.815 0z" fill-rule="nonzero"/></symbol>

<symbol id="twitter" fill-rule="evenodd" clip-rule="evenodd" stroke-linejoin="round" stroke-miterlimit="1.414"><path transform="scale(1.2)" d="M16 3.038c-.59.26-1.22.437-1.885.517.677-.407 1.198-1.05 1.443-1.816-.634.37-1.337.64-2.085.79-.598-.64-1.45-1.04-2.396-1.04-1.812 0-3.282 1.47-3.282 3.28 0 .26.03.51.085.75-2.728-.13-5.147-1.44-6.766-3.42C.83 2.58.67 3.14.67 3.75c0 1.14.58 2.143 1.46 2.732-.538-.017-1.045-.165-1.487-.41v.04c0 1.59 1.13 2.918 2.633 3.22-.276.074-.566.114-.865.114-.21 0-.41-.02-.61-.058.42 1.304 1.63 2.253 3.07 2.28-1.12.88-2.54 1.404-4.07 1.404-.26 0-.52-.015-.78-.045 1.46.93 3.18 1.474 5.04 1.474 6.04 0 9.34-5 9.34-9.33 0-.14 0-.28-.01-.42.64-.46 1.2-1.04 1.64-1.7z" fill-rule="nonzero"/></symbol>

<symbol id="scholar" fill-rule="evenodd" clip-rule="evenodd" stroke-linejoin="round" stroke-miterlimit="1.414"><path transform="scale(0.40)" d="M 25 2 C 12.309534 2 2 12.309534 2 25 C 2 37.690466 12.309534 48 25 48 C 37.690466 48 48 37.690466 48 25 C 48 12.309534 37.690466 2 25 2 z M 25 4 C 36.609534 4 46 13.390466 46 25 C 46 36.609534 36.609534 46 25 46 C 13.390466 46 4 36.609534 4 25 C 4 13.390466 13.390466 4 25 4 z M 21 11 L 11 20 L 17.78125 20 C 17.80125 22.847 19.967531 25.730469 23.769531 25.730469 C 24.129531 25.730469 24.529688 25.690391 24.929688 25.650391 C 24.749688 26.100391 24.560547 26.470078 24.560547 27.080078 C 24.560547 28.230078 25.140391 28.920078 25.650391 29.580078 C 24.020391 29.690078 20.989766 29.879531 18.759766 31.269531 C 16.629766 32.559531 15.980469 34.43 15.980469 35.75 C 15.980469 38.47 18.500469 41 23.730469 41 C 29.930469 41 33.220703 37.510547 33.220703 34.060547 C 33.220703 31.530547 31.779453 30.279922 30.189453 28.919922 L 28.900391 27.890625 C 28.500391 27.570625 27.949219 27.120312 27.949219 26.320312 C 27.949219 25.510313 28.500703 24.989766 28.970703 24.509766 C 30.480703 23.309766 32 21.960234 32 19.240234 C 32 18.197234 31.756203 17.348391 31.408203 16.650391 L 35 13.570312 L 35 17.277344 C 34.405 17.623344 34 18.261 34 19 L 34 25 C 34 26.104 34.896 27 36 27 C 37.104 27 38 26.104 38 25 L 38 19 C 38 18.262 37.595 17.624344 37 17.277344 L 37 12 C 37 11.957 36.980609 11.920906 36.974609 11.878906 L 38 11 L 21 11 z M 24.269531 14.240234 C 27.269531 14.240234 28.820312 18.35 28.820312 21 C 28.820312 21.65 28.739922 22.819922 27.919922 23.669922 C 27.339922 24.259922 26.370938 24.699219 25.460938 24.699219 C 22.370938 24.699219 20.949219 20.620156 20.949219 18.160156 C 20.949219 17.210156 21.14 16.220938 21.75 15.460938 C 22.33 14.710938 23.339531 14.240234 24.269531 14.240234 z M 26.039062 30.609375 C 26.409063 30.609375 26.590859 30.610391 26.880859 30.650391 C 29.620859 32.630391 30.800781 33.620234 30.800781 35.490234 C 30.800781 37.760234 28.97 39.460938 25.5 39.460938 C 21.64 39.460938 19.160156 37.590469 19.160156 34.980469 C 19.160156 32.370469 21.459766 31.499219 22.259766 31.199219 C 23.769766 30.679219 25.719062 30.609375 26.039062 30.609375 z"/></symbol>


</svg>
